<?xml version="1.0" encoding="UTF-8" standalone="no"?>
<!DOCTYPE svg PUBLIC "-//W3C//DTD SVG 1.1//EN" "http://www.w3.org/Graphics/SVG/1.1/DTD/svg11.dtd">
<svg width="100%" height="100%" viewBox="0 0 189 60" version="1.1" xmlns="http://www.w3.org/2000/svg" xmlns:xlink="http://www.w3.org/1999/xlink" xml:space="preserve" xmlns:serif="http://www.serif.com/" style="fill-rule:evenodd;clip-rule:evenodd;stroke-linejoin:round;stroke-miterlimit:2;">
    <g id="Layer1">
        <g transform="matrix(0.493197,0,0,0.493197,-10.6179,48.2565)">
            <path d="M45.212,4.56C44.692,6.762 43.699,8.455 42.235,9.637C40.727,10.808 38.943,11.394 36.882,11.394C35.016,11.351 33.459,10.895 32.212,10.027C30.943,9.192 30.021,8.227 29.446,7.131C29.272,6.773 29.115,6.432 28.974,6.106C28.844,5.77 28.735,5.347 28.649,4.837C28.486,3.882 28.405,2.049 28.405,-0.663C28.405,-3.418 28.486,-5.262 28.649,-6.195C28.822,-7.127 29.088,-7.881 29.446,-8.456C30.021,-9.552 30.943,-10.528 32.212,-11.385C33.459,-12.253 35.016,-12.697 36.882,-12.719C39.17,-12.697 41.036,-12.02 42.479,-10.685C43.921,-9.34 44.833,-7.675 45.212,-5.69L41.405,-5.69C41.112,-6.645 40.581,-7.458 39.81,-8.131C39.008,-8.771 38.031,-9.102 36.882,-9.123C36.036,-9.102 35.309,-8.933 34.701,-8.619C34.083,-8.294 33.584,-7.887 33.204,-7.399C32.738,-6.889 32.429,-6.233 32.277,-5.43C32.103,-4.584 32.017,-2.995 32.017,-0.663C32.017,1.67 32.103,3.248 32.277,4.072C32.429,4.897 32.738,5.564 33.204,6.074C33.584,6.562 34.083,6.958 34.701,7.261C35.309,7.619 36.036,7.798 36.882,7.798C38.899,7.798 40.407,6.719 41.405,4.56L45.212,4.56Z" style="fill-rule:nonzero;"/>
            <path d="M48.108,-12.524L51.508,-12.524L51.508,6.838C51.508,7.608 51.931,7.994 52.778,7.994L53.949,7.994L53.949,11.199L52.436,11.199C51.199,11.199 50.18,10.89 49.377,10.271C48.531,9.642 48.108,8.585 48.108,7.099L48.108,-12.524Z" style="fill-rule:nonzero;"/>
            <path d="M56.535,2.738C56.535,0.959 56.682,-0.408 56.975,-1.362C57.278,-2.295 57.745,-3.081 58.374,-3.721C58.84,-4.285 59.491,-4.79 60.327,-5.235C61.151,-5.658 62.209,-5.88 63.499,-5.902C64.834,-5.88 65.913,-5.658 66.737,-5.235C67.551,-4.79 68.18,-4.285 68.625,-3.721C69.297,-3.081 69.774,-2.295 70.056,-1.362C70.328,-0.408 70.463,0.959 70.463,2.738C70.463,4.517 70.328,5.873 70.056,6.806C69.774,7.739 69.297,8.547 68.625,9.23C68.408,9.48 68.142,9.724 67.827,9.962C67.545,10.233 67.182,10.467 66.737,10.662C65.913,11.128 64.834,11.372 63.499,11.394C62.209,11.372 61.151,11.128 60.327,10.662C59.491,10.239 58.84,9.762 58.374,9.23C57.745,8.547 57.278,7.739 56.975,6.806C56.682,5.873 56.535,4.517 56.535,2.738ZM67.063,2.771C67.063,1.567 67.008,0.688 66.9,0.135C66.791,-0.397 66.569,-0.863 66.233,-1.265C65.983,-1.644 65.615,-1.942 65.126,-2.159C64.66,-2.387 64.118,-2.501 63.499,-2.501C62.924,-2.501 62.393,-2.387 61.905,-2.159C61.438,-1.942 61.059,-1.644 60.766,-1.265C60.473,-0.863 60.261,-0.397 60.131,0.135C60.001,0.688 59.936,1.556 59.936,2.738C59.936,3.91 60.001,4.766 60.131,5.309C60.261,5.862 60.473,6.35 60.766,6.773C61.059,7.099 61.438,7.386 61.905,7.636C62.393,7.874 62.924,7.994 63.499,7.994C64.118,7.994 64.66,7.874 65.126,7.636C65.615,7.386 65.983,7.099 66.233,6.773C66.569,6.35 66.791,5.862 66.9,5.309C67.008,4.766 67.063,3.92 67.063,2.771Z" style="fill-rule:nonzero;"/>
            <path d="M74.693,-5.69L78.094,-5.69L78.094,4.365C78.094,5.504 78.414,6.394 79.054,7.034C79.683,7.674 80.485,7.994 81.462,7.994C82.438,7.994 83.235,7.674 83.853,7.034C84.483,6.394 84.797,5.504 84.797,4.365L84.797,-5.69L88.198,-5.69L88.198,11.199L84.797,11.199L84.797,9.393L84.732,9.393C83.615,10.727 82.156,11.394 80.355,11.394C78.956,11.372 77.692,10.863 76.564,9.865C75.338,8.888 74.715,7.446 74.693,5.537L74.693,-5.69Z" style="fill-rule:nonzero;"/>
            <path d="M103.361,9.425C102.244,10.694 100.785,11.351 98.985,11.394C97.965,11.372 97.092,11.161 96.365,10.76C95.606,10.369 94.971,9.848 94.461,9.198C93.995,8.666 93.686,7.945 93.534,7.034C93.349,6.166 93.257,4.734 93.257,2.738C93.257,0.71 93.349,-0.733 93.534,-1.59C93.686,-2.458 93.995,-3.157 94.461,-3.689C95.416,-5.11 96.924,-5.847 98.985,-5.902C99.852,-5.902 100.655,-5.723 101.393,-5.365C102.076,-4.985 102.732,-4.497 103.361,-3.9L103.361,-12.524L106.762,-12.524L106.762,11.199L103.361,11.199L103.361,9.425ZM100.026,-2.501C99.223,-2.501 98.61,-2.366 98.187,-2.094C97.721,-1.801 97.379,-1.4 97.162,-0.89C96.956,-0.381 96.821,0.173 96.755,0.769C96.69,1.409 96.658,2.066 96.658,2.738C96.658,3.378 96.69,4.002 96.755,4.609C96.821,5.249 96.956,5.824 97.162,6.334C97.379,6.822 97.721,7.223 98.187,7.538C98.61,7.842 99.223,7.994 100.026,7.994C100.829,7.994 101.463,7.831 101.93,7.505C102.396,7.191 102.716,6.779 102.89,6.269C103.106,5.759 103.253,5.19 103.329,4.56C103.351,3.942 103.361,3.335 103.361,2.738C103.361,2.087 103.351,1.464 103.329,0.867C103.253,0.27 103.106,-0.283 102.89,-0.793C102.716,-1.303 102.396,-1.715 101.93,-2.029C101.463,-2.344 100.829,-2.501 100.026,-2.501Z" style="fill-rule:nonzero;"/>
            <path d="M120.184,-12.524L129.377,-12.524C131.709,-12.502 133.461,-11.916 134.632,-10.767C135.815,-9.606 136.406,-8.071 136.406,-6.162C136.428,-5.186 136.194,-4.253 135.706,-3.363C135.457,-2.94 135.099,-2.539 134.632,-2.159C134.166,-1.758 133.591,-1.395 132.908,-1.069L132.908,-1.004C134.199,-0.668 135.175,0.01 135.837,1.03C136.455,2.082 136.764,3.226 136.764,4.463C136.742,6.513 136.102,8.135 134.844,9.328C133.597,10.575 132.04,11.199 130.174,11.199L120.184,11.199L120.184,-12.524ZM123.78,0.672L123.78,7.798L129.312,7.798C130.646,7.777 131.622,7.413 132.241,6.708C132.859,6.014 133.168,5.19 133.168,4.235C133.168,3.259 132.859,2.423 132.241,1.729C131.622,1.046 130.646,0.693 129.312,0.672L123.78,0.672ZM123.78,-9.319L123.78,-2.534L128.97,-2.534C130.283,-2.534 131.248,-2.875 131.866,-3.559C132.496,-4.188 132.81,-4.98 132.81,-5.934C132.81,-6.889 132.496,-7.697 131.866,-8.359C131.248,-8.977 130.283,-9.297 128.97,-9.319L123.78,-9.319Z" style="fill-rule:nonzero;"/>
            <path d="M149.731,9.702L149.666,9.702C149.351,10.277 148.863,10.7 148.202,10.971C147.551,11.253 146.65,11.394 145.501,11.394C143.613,11.372 142.16,10.873 141.14,9.897C140.066,8.943 139.529,7.722 139.529,6.236C139.529,4.815 139.996,3.638 140.929,2.706C141.861,1.751 143.228,1.263 145.029,1.241L149.731,1.241L149.731,-0.532C149.753,-2.018 148.598,-2.74 146.265,-2.696C145.419,-2.696 144.752,-2.61 144.264,-2.436C143.754,-2.23 143.353,-1.883 143.06,-1.395L140.392,-3.429C141.682,-5.121 143.586,-5.945 146.103,-5.902C148.229,-5.923 149.926,-5.522 151.195,-4.698C152.465,-3.852 153.11,-2.398 153.132,-0.337L153.132,11.199L149.731,11.199L149.731,9.702ZM149.731,4.04L145.663,4.04C143.689,4.083 142.713,4.761 142.735,6.074C142.735,6.648 142.99,7.137 143.499,7.538C143.988,7.983 144.796,8.205 145.924,8.205C147.345,8.227 148.348,8.059 148.934,7.701C149.465,7.343 149.731,6.529 149.731,5.26L149.731,4.04Z" style="fill-rule:nonzero;"/>
            <path d="M170.622,8.465C169.884,9.311 169.017,10 168.019,10.532C167.021,11.085 165.866,11.372 164.553,11.394C162.557,11.394 160.805,10.716 159.298,9.36C157.736,8.004 156.933,5.808 156.89,2.771C156.933,-0.299 157.736,-2.523 159.298,-3.9C160.805,-5.256 162.557,-5.923 164.553,-5.902C165.866,-5.88 167.021,-5.609 168.019,-5.088C169.017,-4.557 169.884,-3.846 170.622,-2.957L168.116,-0.728C167.259,-1.867 166.115,-2.458 164.683,-2.501C161.798,-2.545 160.334,-0.787 160.29,2.771C160.334,6.307 161.798,8.048 164.683,7.994C166.115,7.972 167.259,7.386 168.116,6.236L170.622,8.465Z" style="fill-rule:nonzero;"/>
            <path d="M173.648,-12.524L177.048,-12.524L177.048,2.234L177.113,2.234L183.606,-5.69L187.673,-5.69L181.848,0.899L188.47,11.199L184.208,11.199L179.717,3.308L177.048,6.334L177.048,11.199L173.648,11.199L173.648,-12.524Z" style="fill-rule:nonzero;"/>
            <path d="M191.61,-5.69L195.011,-5.69L195.011,4.365C195.011,5.504 195.331,6.394 195.971,7.034C196.6,7.674 197.402,7.994 198.379,7.994C199.355,7.994 200.152,7.674 200.771,7.034C201.4,6.394 201.714,5.504 201.714,4.365L201.714,-5.69L205.115,-5.69L205.115,11.199L201.714,11.199L201.714,9.393L201.649,9.393C200.532,10.727 199.073,11.394 197.272,11.394C195.873,11.372 194.609,10.863 193.481,9.865C192.255,8.888 191.632,7.446 191.61,5.537L191.61,-5.69Z" style="fill-rule:nonzero;"/>
            <path d="M210.174,-5.69L213.575,-5.69L213.575,-3.933C214.703,-5.191 216.157,-5.847 217.936,-5.902C220.007,-5.847 221.52,-5.11 222.475,-3.689C222.941,-3.157 223.261,-2.458 223.435,-1.59C223.598,-0.733 223.679,0.72 223.679,2.771C223.679,4.766 223.598,6.198 223.435,7.066C223.261,7.934 222.941,8.644 222.475,9.198C222.009,9.848 221.396,10.369 220.636,10.76C219.888,11.161 218.988,11.372 217.936,11.394C217.068,11.394 216.292,11.204 215.609,10.825C214.871,10.478 214.193,10 213.575,9.393L213.575,18.033L210.174,18.033L210.174,-5.69ZM216.91,7.994C217.713,7.994 218.348,7.842 218.814,7.538C219.281,7.223 219.611,6.822 219.807,6.334C220.024,5.824 220.17,5.26 220.246,4.642C220.268,4.034 220.278,3.411 220.278,2.771C220.278,2.098 220.268,1.442 220.246,0.802C220.17,0.162 220.024,-0.402 219.807,-0.89C219.611,-1.4 219.281,-1.801 218.814,-2.094C218.348,-2.366 217.713,-2.501 216.91,-2.501C216.151,-2.501 215.549,-2.344 215.104,-2.029C214.638,-1.715 214.296,-1.303 214.079,-0.793C213.873,-0.283 213.738,0.27 213.673,0.867C213.607,1.496 213.575,2.131 213.575,2.771C213.575,3.367 213.607,3.964 213.673,4.56C213.738,5.19 213.873,5.759 214.079,6.269C214.296,6.779 214.638,7.191 215.104,7.505C215.549,7.831 216.151,7.994 216.91,7.994Z" style="fill-rule:nonzero;"/>
            <path d="M241.462,-7.464C241.462,-6.976 241.641,-6.477 241.999,-5.967C242.302,-5.424 242.709,-4.909 243.219,-4.421C244.315,-4.866 245.085,-5.332 245.529,-5.82C245.931,-6.319 246.131,-6.867 246.131,-7.464C246.131,-8.104 245.92,-8.646 245.497,-9.091C245.052,-9.514 244.483,-9.725 243.788,-9.725C243.127,-9.725 242.584,-9.514 242.161,-9.091C241.695,-8.646 241.462,-8.104 241.462,-7.464ZM250.02,8.807C249.066,9.534 248.035,10.141 246.929,10.629C245.833,11.117 244.656,11.372 243.398,11.394C241.131,11.351 239.33,10.619 237.996,9.198C236.618,7.798 235.919,6.101 235.897,4.105C235.919,1.144 237.427,-1.167 240.42,-2.827C239.845,-3.499 239.39,-4.22 239.054,-4.991C238.663,-5.75 238.468,-6.531 238.468,-7.334C238.468,-8.82 238.956,-10.083 239.932,-11.125C240.887,-12.166 242.172,-12.697 243.788,-12.719C245.416,-12.697 246.706,-12.166 247.661,-11.125C248.615,-10.083 249.104,-8.82 249.125,-7.334C249.169,-5.132 247.845,-3.363 245.155,-2.029L250.215,4.072C251.148,2.847 251.837,1.523 252.282,0.102L255.324,1.306C254.988,2.196 254.554,3.085 254.023,3.975C253.491,4.886 252.889,5.705 252.217,6.432L256.219,11.199L252.217,11.199L250.02,8.807ZM242.324,-0.565C240.014,0.791 238.869,2.337 238.891,4.072C238.913,5.309 239.357,6.328 240.225,7.131C241.071,7.977 242.091,8.4 243.284,8.4C244.824,8.422 246.413,7.722 248.051,6.301L242.324,-0.565Z" style="fill-rule:nonzero;"/>
            <path d="M271.61,-2.127L277.045,-2.127C278.39,-2.149 279.398,-2.539 280.071,-3.298C280.733,-4.003 281.063,-4.871 281.063,-5.902C281.042,-7.138 280.646,-8.033 279.876,-8.586C279.268,-9.075 278.39,-9.319 277.24,-9.319L271.61,-9.319L271.61,-2.127ZM268.014,-12.524L277.272,-12.524C279.247,-12.524 280.857,-12.003 282.105,-10.962C283.613,-9.78 284.399,-8.093 284.464,-5.902C284.421,-2.68 282.891,-0.489 279.876,0.672L285.375,11.199L281.096,11.199L276.198,1.062L271.61,1.062L271.61,11.199L268.014,11.199L268.014,-12.524Z" style="fill-rule:nonzero;"/>
            <path d="M291.265,4.04C291.265,5.396 291.655,6.426 292.436,7.131C293.163,7.847 294.117,8.205 295.3,8.205C296.677,8.205 297.908,7.657 298.993,6.562L301.45,8.661C299.725,10.505 297.697,11.416 295.365,11.394C294.475,11.394 293.608,11.264 292.761,11.004C292.338,10.863 291.926,10.673 291.525,10.434C291.102,10.228 290.706,9.973 290.337,9.669C289.621,9.04 289.041,8.162 288.596,7.034C288.108,5.949 287.864,4.539 287.864,2.803C287.864,1.133 288.075,-0.256 288.499,-1.362C288.922,-2.49 289.464,-3.38 290.126,-4.031C290.798,-4.692 291.552,-5.17 292.387,-5.462C293.212,-5.755 294.025,-5.902 294.828,-5.902C296.759,-5.88 298.391,-5.245 299.725,-3.998C301.081,-2.729 301.77,-0.983 301.792,1.241L301.792,4.04L291.265,4.04ZM298.391,1.241C298.348,-0.071 297.995,-1.064 297.334,-1.736C296.683,-2.376 295.847,-2.696 294.828,-2.696C293.808,-2.696 292.973,-2.376 292.322,-1.736C291.682,-1.064 291.33,-0.071 291.265,1.241L298.391,1.241Z" style="fill-rule:nonzero;"/>
            <path d="M318.452,8.465C317.715,9.311 316.847,10 315.849,10.532C314.851,11.085 313.696,11.372 312.383,11.394C310.387,11.394 308.636,10.716 307.128,9.36C305.566,8.004 304.763,5.808 304.72,2.771C304.763,-0.299 305.566,-2.523 307.128,-3.9C308.636,-5.256 310.387,-5.923 312.383,-5.902C313.696,-5.88 314.851,-5.609 315.849,-5.088C316.847,-4.557 317.715,-3.846 318.452,-2.957L315.947,-0.728C315.09,-1.867 313.945,-2.458 312.514,-2.501C309.628,-2.545 308.164,-0.787 308.12,2.771C308.164,6.307 309.628,8.048 312.514,7.994C313.945,7.972 315.09,7.386 315.947,6.236L318.452,8.465Z" style="fill-rule:nonzero;"/>
            <path d="M320.648,2.738C320.648,0.959 320.795,-0.408 321.088,-1.362C321.391,-2.295 321.858,-3.081 322.487,-3.721C322.953,-4.285 323.604,-4.79 324.439,-5.235C325.264,-5.658 326.321,-5.88 327.612,-5.902C328.946,-5.88 330.026,-5.658 330.85,-5.235C331.664,-4.79 332.293,-4.285 332.737,-3.721C333.41,-3.081 333.887,-2.295 334.169,-1.362C334.44,-0.408 334.576,0.959 334.576,2.738C334.576,4.517 334.44,5.873 334.169,6.806C333.887,7.739 333.41,8.547 332.737,9.23C332.52,9.48 332.255,9.724 331.94,9.962C331.658,10.233 331.295,10.467 330.85,10.662C330.026,11.128 328.946,11.372 327.612,11.394C326.321,11.372 325.264,11.128 324.439,10.662C323.604,10.239 322.953,9.762 322.487,9.23C321.858,8.547 321.391,7.739 321.088,6.806C320.795,5.873 320.648,4.517 320.648,2.738ZM331.175,2.771C331.175,1.567 331.121,0.688 331.013,0.135C330.904,-0.397 330.682,-0.863 330.346,-1.265C330.096,-1.644 329.727,-1.942 329.239,-2.159C328.773,-2.387 328.23,-2.501 327.612,-2.501C327.037,-2.501 326.506,-2.387 326.018,-2.159C325.551,-1.942 325.172,-1.644 324.879,-1.265C324.586,-0.863 324.374,-0.397 324.244,0.135C324.114,0.688 324.049,1.556 324.049,2.738C324.049,3.91 324.114,4.766 324.244,5.309C324.374,5.862 324.586,6.35 324.879,6.773C325.172,7.099 325.551,7.386 326.018,7.636C326.506,7.874 327.037,7.994 327.612,7.994C328.23,7.994 328.773,7.874 329.239,7.636C329.727,7.386 330.096,7.099 330.346,6.773C330.682,6.35 330.904,5.862 331.013,5.309C331.121,4.766 331.175,3.92 331.175,2.771Z" style="fill-rule:nonzero;"/>
            <path d="M336.414,-5.69L340.01,-5.69L343.98,6.139L344.045,6.139L347.999,-5.69L351.611,-5.69L345.412,11.199L342.613,11.199L336.414,-5.69Z" style="fill-rule:nonzero;"/>
            <path d="M356.638,4.04C356.638,5.396 357.028,6.426 357.809,7.131C358.536,7.847 359.491,8.205 360.673,8.205C362.051,8.205 363.282,7.657 364.366,6.562L366.823,8.661C365.099,10.505 363.07,11.416 360.738,11.394C359.849,11.394 358.981,11.264 358.135,11.004C357.712,10.863 357.3,10.673 356.898,10.434C356.475,10.228 356.079,9.973 355.71,9.669C354.995,9.04 354.414,8.162 353.969,7.034C353.481,5.949 353.237,4.539 353.237,2.803C353.237,1.133 353.449,-0.256 353.872,-1.362C354.295,-2.49 354.837,-3.38 355.499,-4.031C356.171,-4.692 356.925,-5.17 357.761,-5.462C358.585,-5.755 359.398,-5.902 360.201,-5.902C362.132,-5.88 363.764,-5.245 365.099,-3.998C366.455,-2.729 367.143,-0.983 367.165,1.241L367.165,4.04L356.638,4.04ZM363.764,1.241C363.721,-0.071 363.369,-1.064 362.707,-1.736C362.056,-2.376 361.221,-2.696 360.201,-2.696C359.182,-2.696 358.346,-2.376 357.695,-1.736C357.055,-1.064 356.703,-0.071 356.638,1.241L363.764,1.241Z" style="fill-rule:nonzero;"/>
            <path d="M371.395,-5.69L374.795,-5.69L374.795,-3.9L374.86,-3.9C375.978,-5.235 377.442,-5.902 379.254,-5.902C380.609,-5.88 381.792,-5.446 382.801,-4.6L380.327,-1.655C379.612,-2.219 378.868,-2.501 378.098,-2.501C377.231,-2.501 376.488,-2.219 375.869,-1.655C375.175,-1.102 374.817,-0.207 374.795,1.03L374.795,11.199L371.395,11.199L371.395,-5.69Z" style="fill-rule:nonzero;"/>
            <path d="M382.605,-5.69L386.201,-5.69L390.203,6.139L390.268,6.139L394.255,-5.69L397.867,-5.69L390.594,14.697C390.127,15.966 389.482,16.845 388.657,17.333C387.822,17.799 386.878,18.033 385.826,18.033L384.704,18.033L384.704,14.827L385.696,14.827C386.141,14.827 386.553,14.708 386.933,14.469C387.312,14.22 387.578,13.851 387.73,13.363L388.657,10.532L382.605,-5.69Z" style="fill-rule:nonzero;"/>
        </g>
        <g transform="matrix(1.09993,0,0,1.09993,54.0198,20.2878)">
            <path d="M28.38,-1.772C28.38,-3.723 28.695,-5.521 29.325,-7.164C29.955,-8.806 30.851,-10.221 32.012,-11.407C33.173,-12.593 34.575,-13.519 36.218,-14.186C37.861,-14.853 39.695,-15.187 41.721,-15.187C43.994,-15.187 45.995,-14.828 47.725,-14.112L47.428,-10.851C46.613,-11.32 45.742,-11.666 44.815,-11.888C43.889,-12.111 42.919,-12.222 41.906,-12.222C40.3,-12.222 38.861,-11.956 37.589,-11.425C36.317,-10.894 35.248,-10.165 34.384,-9.239C33.519,-8.312 32.858,-7.213 32.401,-5.941C31.944,-4.668 31.715,-3.279 31.715,-1.772C31.715,-0.19 31.956,1.243 32.438,2.527C32.92,3.812 33.605,4.911 34.495,5.825C35.384,6.74 36.465,7.444 37.737,7.938C39.01,8.432 40.449,8.679 42.055,8.679C42.993,8.679 43.938,8.562 44.89,8.327C45.841,8.092 46.736,7.728 47.576,7.234L47.873,10.532C46.934,10.952 45.958,11.242 44.945,11.403C43.932,11.563 42.907,11.644 41.869,11.644C39.794,11.644 37.929,11.316 36.273,10.662C34.618,10.007 33.204,9.093 32.03,7.919C30.857,6.746 29.955,5.337 29.325,3.695C28.695,2.052 28.38,0.23 28.38,-1.772Z" style="fill:rgb(201,4,4);fill-rule:nonzero;stroke:rgb(201,4,4);stroke-width:0.27px;"/>
            <rect x="52.134" y="-15.854" width="3.113" height="27.053" style="fill:rgb(201,4,4);fill-rule:nonzero;stroke:rgb(201,4,4);stroke-width:0.27px;"/>
            <path d="M59.509,1.601C59.509,0.168 59.725,-1.166 60.158,-2.402C60.59,-3.637 61.208,-4.699 62.01,-5.589C62.813,-6.478 63.783,-7.176 64.92,-7.682C66.056,-8.189 67.341,-8.442 68.774,-8.442C70.207,-8.442 71.491,-8.189 72.628,-7.682C73.764,-7.176 74.734,-6.478 75.537,-5.589C76.34,-4.699 76.957,-3.637 77.39,-2.402C77.822,-1.166 78.038,0.168 78.038,1.601C78.038,3.058 77.822,4.399 77.39,5.622C76.957,6.845 76.34,7.901 75.537,8.79C74.734,9.679 73.764,10.377 72.628,10.884C71.491,11.39 70.207,11.644 68.774,11.644C67.341,11.644 66.056,11.39 64.92,10.884C63.783,10.377 62.813,9.679 62.01,8.79C61.208,7.901 60.59,6.845 60.158,5.622C59.725,4.399 59.509,3.058 59.509,1.601ZM62.696,1.601C62.696,3.849 63.227,5.628 64.29,6.937C65.352,8.247 66.847,8.901 68.774,8.901C70.701,8.901 72.195,8.247 73.258,6.937C74.32,5.628 74.851,3.849 74.851,1.601C74.851,-0.647 74.32,-2.426 73.258,-3.736C72.195,-5.045 70.701,-5.7 68.774,-5.7C66.847,-5.7 65.352,-5.045 64.29,-3.736C63.227,-2.426 62.696,-0.647 62.696,1.601Z" style="fill:rgb(201,4,4);fill-rule:nonzero;stroke:rgb(201,4,4);stroke-width:0.27px;"/>
            <path d="M90.305,8.901C91.416,8.901 92.411,8.679 93.288,8.234C94.165,7.789 94.875,7.209 95.419,6.492L95.419,-7.997L98.531,-7.997L98.531,11.199L95.419,11.199L95.419,9.642C94.776,10.235 93.992,10.717 93.065,11.088C92.139,11.458 91.083,11.644 89.897,11.644C87.426,11.644 85.481,10.909 84.06,9.439C82.64,7.969 81.929,5.776 81.929,2.861L81.929,-7.997L85.042,-7.997L85.042,2.935C85.042,5.035 85.481,6.554 86.358,7.493C87.235,8.432 88.55,8.901 90.305,8.901Z" style="fill:rgb(201,4,4);fill-rule:nonzero;stroke:rgb(201,4,4);stroke-width:0.27px;"/>
            <path d="M116.912,9.717C116.27,10.309 115.486,10.779 114.559,11.125C113.633,11.471 112.626,11.644 111.539,11.644C110.279,11.644 109.105,11.415 108.018,10.958C106.931,10.501 105.986,9.834 105.183,8.957C104.38,8.08 103.75,7.024 103.293,5.788C102.836,4.553 102.608,3.157 102.608,1.601C102.608,0.044 102.836,-1.352 103.293,-2.587C103.75,-3.822 104.38,-4.878 105.183,-5.755C105.986,-6.632 106.931,-7.299 108.018,-7.756C109.105,-8.214 110.279,-8.442 111.539,-8.442C112.626,-8.442 113.633,-8.269 114.559,-7.923C115.486,-7.577 116.27,-7.108 116.912,-6.515L116.912,-15.854L120.025,-15.854L120.025,11.199L116.912,11.199L116.912,9.717ZM116.912,-3.328C116.344,-4.094 115.615,-4.681 114.726,-5.088C113.837,-5.496 112.873,-5.7 111.835,-5.7C110.971,-5.7 110.168,-5.545 109.427,-5.237C108.685,-4.928 108.043,-4.464 107.5,-3.847C106.956,-3.229 106.536,-2.469 106.24,-1.568C105.943,-0.666 105.795,0.39 105.795,1.601C105.795,2.811 105.943,3.874 106.24,4.788C106.536,5.702 106.956,6.462 107.5,7.067C108.043,7.672 108.685,8.129 109.427,8.438C110.168,8.747 110.971,8.901 111.835,8.901C112.873,8.901 113.837,8.697 114.726,8.29C115.615,7.882 116.344,7.295 116.912,6.53L116.912,-3.328Z" style="fill:rgb(201,4,4);fill-rule:nonzero;stroke:rgb(201,4,4);stroke-width:0.27px;"/>
        </g>
        <g transform="matrix(1.09993,0,0,1.09993,-29.4775,20.2878)">
            <path d="M29.492,-14.742L39.238,-14.742C42.277,-14.742 44.618,-14.093 46.261,-12.796C47.904,-11.499 48.725,-9.789 48.725,-7.664C48.725,-6.552 48.478,-5.558 47.984,-4.681C47.49,-3.804 46.761,-3.106 45.797,-2.587C47.156,-2.019 48.182,-1.203 48.873,-0.141C49.565,0.921 49.911,2.132 49.911,3.491C49.911,6.011 49.028,7.925 47.261,9.235C45.495,10.544 42.981,11.199 39.72,11.199L29.492,11.199L29.492,-14.742ZM43.87,3.305C43.87,2.268 43.488,1.459 42.722,0.878C41.956,0.298 40.683,0.007 38.905,0.007L35.273,0.007L35.273,6.826L38.905,6.826C40.683,6.826 41.956,6.554 42.722,6.011C43.488,5.467 43.87,4.565 43.87,3.305ZM42.87,-7.256C42.87,-8.294 42.524,-9.072 41.832,-9.591C41.14,-10.11 40.041,-10.369 38.534,-10.369L35.273,-10.369L35.273,-4.366L38.534,-4.366C40.041,-4.366 41.14,-4.594 41.832,-5.051C42.524,-5.508 42.87,-6.243 42.87,-7.256Z" style="fill-rule:nonzero;"/>
            <path d="M70.145,-1.734C70.145,-3.266 69.953,-4.569 69.57,-5.644C69.187,-6.719 68.632,-7.596 67.903,-8.275C67.174,-8.955 66.272,-9.449 65.198,-9.758C64.123,-10.066 62.894,-10.221 61.51,-10.221L59.768,-10.221L59.768,6.678L61.51,6.678C62.894,6.678 64.123,6.523 65.198,6.215C66.272,5.906 67.174,5.418 67.903,4.751C68.632,4.084 69.187,3.219 69.57,2.157C69.953,1.094 70.145,-0.203 70.145,-1.734ZM76,-1.772C76,0.378 75.648,2.268 74.944,3.898C74.24,5.529 73.264,6.882 72.016,7.956C70.769,9.031 69.286,9.84 67.569,10.384C65.852,10.927 63.968,11.199 61.918,11.199L53.987,11.199L53.987,-14.742L61.918,-14.742C63.968,-14.742 65.852,-14.47 67.569,-13.927C69.286,-13.383 70.769,-12.568 72.016,-11.481C73.264,-10.394 74.24,-9.041 74.944,-7.423C75.648,-5.805 76,-3.921 76,-1.772Z" style="fill-rule:nonzero;"/>
            <path d="M99.866,-6.774C99.866,-5.02 99.402,-3.526 98.476,-2.29C97.549,-1.055 96.271,-0.116 94.64,0.526L101.793,11.199L95.493,11.199L89.193,1.415L86.043,1.415L86.043,11.199L80.262,11.199L80.262,-14.742L89.637,-14.742C91.095,-14.742 92.448,-14.575 93.695,-14.242C94.943,-13.908 96.024,-13.414 96.938,-12.759C97.852,-12.105 98.569,-11.277 99.087,-10.276C99.606,-9.276 99.866,-8.109 99.866,-6.774ZM94.01,-6.774C94.01,-8.034 93.597,-8.949 92.769,-9.517C91.941,-10.085 90.774,-10.369 89.267,-10.369L86.043,-10.369L86.043,-2.957L89.267,-2.957C90.774,-2.957 91.941,-3.279 92.769,-3.921C93.597,-4.563 94.01,-5.514 94.01,-6.774Z" style="fill-rule:nonzero;"/>
        </g>
    </g>
</svg>
