<?xml version="1.0" encoding="UTF-8" standalone="no"?>
<!DOCTYPE svg PUBLIC "-//W3C//DTD SVG 1.1//EN" "http://www.w3.org/Graphics/SVG/1.1/DTD/svg11.dtd">
<svg width="100%" height="100%" viewBox="0 0 60 23" version="1.1" xmlns="http://www.w3.org/2000/svg" xmlns:xlink="http://www.w3.org/1999/xlink" xml:space="preserve" xmlns:serif="http://www.serif.com/" style="fill-rule:evenodd;clip-rule:evenodd;stroke-linejoin:round;stroke-miterlimit:2;">
    <g transform="matrix(0.0496822,0,0,0.0496819,0.190724,-0.373079)">
        <g>
            <g>
                <g transform="matrix(6.74741,0.0087618,-0.0091233,7.0258,-188.166,-169.04)">
                    <g>
                        <g transform="matrix(1,0,0,1,-1.77636e-15,-766.932)">
                            <path d="M114.829,813.662C112.532,807.664 101.298,808.34 101.258,815.979L101.131,834.818L101.131,834.979C101.071,836.105 99.973,836.988 98.661,836.934C97.342,836.881 96.311,835.944 96.371,834.818L96.371,814.755C96.371,805.147 110.638,801.144 117.366,809.064C123.82,801.237 138.361,805.147 138.361,814.755L138.361,834.818C138.422,835.944 137.391,836.881 136.072,836.934C134.759,836.988 133.654,836.105 133.594,834.979L133.594,834.818L133.467,815.979C133.434,809.452 125.232,808.005 121.41,811.467C120.452,812.364 119.869,813.509 119.849,815.022L119.722,834.818L119.722,834.979C119.655,836.105 118.564,836.988 117.245,836.934C115.926,836.881 114.896,835.944 114.962,834.818L115.043,814.908C115.037,814.479 114.962,814.065 114.829,813.662" style="fill:rgb(4,4,5);fill-rule:nonzero;"/>
                        </g>
                        <g transform="matrix(1,0,0,1,-1.77636e-15,-764.027)">
                            <path d="M56.832,802.543C57.139,801.627 58.003,800.97 59.02,800.97C60.299,800.97 61.337,802.002 61.337,803.28C61.337,803.494 61.303,803.702 61.25,803.896C61.223,803.996 61.196,804.09 61.156,804.184L50.753,829.992C50.431,830.789 50.063,831.452 49.662,831.994C49.347,832.422 47.773,834.257 45.096,834.143C42.518,834.035 41.172,832.282 40.911,831.927C40.53,831.399 40.187,830.762 39.88,830.012L29.375,804.057L29.383,804.057C29.375,804.037 29.363,804.009 29.355,803.983C29.288,803.762 29.248,803.527 29.248,803.28C29.248,802.002 30.28,800.97 31.559,800.97C32.543,800.97 33.379,801.579 33.714,802.443L44.078,828.138C44.399,828.934 44.614,829.671 45.303,829.684C46.046,829.697 46.187,828.934 46.508,828.138" style="fill:rgb(4,4,5);fill-rule:nonzero;"/>
                        </g>
                        <g transform="matrix(1,0,0,1,-1.77636e-15,-774.043)">
                            <path d="M143.175,832.878C142.726,831.278 142.518,829.558 142.538,827.737L142.538,801.901C142.538,800.595 143.603,799.538 144.922,799.538C146.241,799.538 147.312,800.595 147.312,801.901L147.312,827.523C147.252,829.591 147.627,831.78 148.55,833.655L148.57,833.675C149.93,836.226 152.293,838.214 155.306,839.011C161.077,840.544 167.036,837.089 168.609,831.298C170.175,825.5 166.754,819.555 160.983,818.022C157.595,817.125 154.141,817.949 151.549,819.944L151.543,819.944C150.994,820.325 150.264,820.473 149.555,820.285C148.29,819.95 147.533,818.698 147.861,817.487C148.008,816.937 148.356,816.489 148.812,816.195C152.501,813.383 157.402,812.244 162.202,813.517C170.456,815.706 175.343,824.208 173.101,832.483C170.858,840.765 162.335,845.705 154.08,843.516C148.631,842.07 144.607,837.952 143.175,832.885" style="fill:rgb(190,32,37);fill-rule:nonzero;"/>
                        </g>
                        <g transform="matrix(1,0,0,1,-1.77636e-15,-762.253)">
                            <path d="M89.998,826.237L89.998,826.243C87.166,829.899 82.734,832.255 77.766,832.255C69.217,832.255 62.287,825.299 62.287,816.723C62.287,808.154 69.217,801.198 77.766,801.198C83.41,801.198 88.351,804.231 91.055,808.763C91.082,808.803 91.109,808.85 91.136,808.89C91.791,810.022 91.404,811.468 90.259,812.117L74.8,820.961C73.662,821.61 72.202,821.223 71.54,820.091C70.883,818.96 71.278,817.514 72.417,816.864L85.66,809.292C83.684,807.184 80.88,805.865 77.766,805.865C71.788,805.865 66.934,810.731 66.934,816.723C66.934,822.722 71.788,827.596 77.766,827.596C81.267,827.596 84.394,825.916 86.376,823.318C86.811,822.808 87.473,822.481 88.21,822.481C89.522,822.481 90.581,823.498 90.581,824.75C90.581,825.319 90.359,825.835 89.998,826.237" style="fill:rgb(4,4,5);fill-rule:nonzero;"/>
                        </g>
                        <g transform="matrix(1,0,0,1,-1.77636e-15,-763.116)">
                            <path d="M199.853,803.614L199.853,803.513C199.853,802.242 200.891,801.198 202.169,801.198C203.442,801.198 204.48,802.242 204.48,803.513L204.48,816.81C204.493,818.644 204.319,820.364 203.937,821.958L203.937,821.965C202.725,827.033 199.317,831.157 194.698,832.603C193.614,832.938 192.522,833.105 191.445,833.118L190.635,833.118C189.564,833.105 188.472,832.938 187.381,832.603C182.768,831.157 179.361,827.033 178.149,821.965L178.149,821.958C177.767,820.364 177.586,818.644 177.606,816.81L177.606,803.835C177.606,803.768 177.606,803.695 177.613,803.634C177.606,803.594 177.606,803.554 177.606,803.513C177.606,802.242 178.644,801.198 179.923,801.198C181.202,801.198 182.233,802.242 182.233,803.513L182.233,803.654C182.233,803.715 182.239,803.768 182.239,803.835L182.239,816.609C182.192,818.671 182.507,820.866 183.29,822.735L183.31,822.755C184.462,825.305 186.464,827.294 189.007,828.098C189.691,828.312 190.367,828.419 191.043,828.451C191.712,828.419 192.395,828.312 193.071,828.098C195.622,827.294 197.623,825.305 198.775,822.755L198.795,822.735C199.572,820.866 199.894,818.671 199.847,816.609L199.847,803.835C199.847,803.755 199.847,803.688 199.853,803.614" style="fill:rgb(4,4,5);fill-rule:nonzero;"/>
                        </g>
                    </g>
                </g>
                <g>
                    <g transform="matrix(1.70034,0,0,1.75807,-909.671,60.4006)">
                        <path d="M554.442,182.051L565.037,182.051C569.953,182.051 573.505,182.768 575.694,184.2C577.883,185.632 578.978,187.895 578.978,190.987C578.978,193.07 578.441,194.804 577.366,196.187C576.292,197.571 574.746,198.441 572.728,198.8L572.728,199.044C575.234,199.516 577.078,200.447 578.258,201.839C579.438,203.231 580.028,205.115 580.028,207.491C580.028,210.697 578.909,213.208 576.671,215.023C574.433,216.837 571.32,217.745 567.332,217.745L554.442,217.745L554.442,182.051ZM560.277,196.798L565.892,196.798C568.333,196.798 570.115,196.411 571.238,195.638C572.362,194.865 572.923,193.551 572.923,191.695C572.923,190.019 572.317,188.806 571.104,188.057C569.892,187.309 567.967,186.934 565.33,186.934L560.277,186.934L560.277,196.798ZM560.277,201.534L560.277,212.838L566.478,212.838C568.919,212.838 570.762,212.37 572.008,211.434C573.253,210.498 573.875,209.021 573.875,207.003C573.875,205.147 573.24,203.772 571.971,202.877C570.701,201.981 568.773,201.534 566.185,201.534L560.277,201.534Z" style="fill-rule:nonzero;"/>
                    </g>
                    <g transform="matrix(1.70034,0,0,1.75807,-909.671,60.4006)">
                        <path d="M603.734,217.745L602.586,213.985L602.391,213.985C601.089,215.629 599.779,216.748 598.46,217.342C597.142,217.936 595.449,218.233 593.382,218.233C590.729,218.233 588.658,217.517 587.169,216.085C585.679,214.652 584.935,212.626 584.935,210.006C584.935,207.222 585.968,205.123 588.035,203.707C590.102,202.291 593.252,201.518 597.484,201.387L602.147,201.241L602.147,199.801C602.147,198.075 601.744,196.785 600.938,195.931C600.133,195.076 598.883,194.649 597.191,194.649C595.807,194.649 594.481,194.853 593.211,195.259C591.942,195.666 590.721,196.147 589.549,196.7L587.694,192.598C589.158,191.833 590.762,191.252 592.503,190.853C594.245,190.454 595.889,190.255 597.435,190.255C600.869,190.255 603.461,191.003 605.211,192.501C606.96,193.998 607.835,196.35 607.835,199.556L607.835,217.745L603.734,217.745ZM595.189,213.839C597.272,213.839 598.944,213.257 600.206,212.093C601.467,210.929 602.098,209.298 602.098,207.198L602.098,204.854L598.631,205.001C595.929,205.098 593.964,205.55 592.735,206.356C591.506,207.161 590.892,208.394 590.892,210.054C590.892,211.259 591.25,212.191 591.966,212.85C592.682,213.509 593.756,213.839 595.189,213.839Z" style="fill-rule:nonzero;"/>
                    </g>
                    <g transform="matrix(1.70034,0,0,1.75807,-909.671,60.4006)">
                        <path d="M626.732,218.233C622.646,218.233 619.542,217.041 617.418,214.656C615.294,212.272 614.232,208.85 614.232,204.39C614.232,199.849 615.342,196.358 617.564,193.917C619.786,191.475 622.996,190.255 627.196,190.255C630.044,190.255 632.607,190.784 634.886,191.842L633.153,196.456C630.727,195.512 628.725,195.04 627.147,195.04C622.475,195.04 620.14,198.14 620.14,204.342C620.14,207.369 620.722,209.643 621.885,211.165C623.049,212.687 624.754,213.448 627,213.448C629.556,213.448 631.973,212.813 634.251,211.544L634.251,216.549C633.226,217.151 632.131,217.582 630.967,217.842C629.804,218.103 628.392,218.233 626.732,218.233Z" style="fill-rule:nonzero;"/>
                    </g>
                    <g transform="matrix(1.70034,0,0,1.75807,-909.671,60.4006)">
                        <path d="M646.141,203.487L649.388,199.434L657.542,190.743L664.158,190.743L653.294,202.34L664.842,217.745L658.104,217.745L649.437,205.904L646.287,208.492L646.287,217.745L640.599,217.745L640.599,179.757L646.287,179.757L646.287,198.287L645.994,203.487L646.141,203.487Z" style="fill-rule:nonzero;"/>
                    </g>
                    <g transform="matrix(1.70034,0,0,1.75807,-909.671,60.4006)">
                        <path d="M688.231,217.745L687.425,214.205L687.132,214.205C686.335,215.458 685.199,216.443 683.726,217.159C682.253,217.875 680.573,218.233 678.685,218.233C675.413,218.233 672.972,217.419 671.361,215.792C669.749,214.164 668.944,211.698 668.944,208.394L668.944,190.743L674.73,190.743L674.73,207.393C674.73,209.46 675.153,211.011 675.999,212.044C676.846,213.078 678.172,213.594 679.979,213.594C682.388,213.594 684.158,212.874 685.289,211.434C686.42,209.993 686.986,207.58 686.986,204.195L686.986,190.743L692.747,190.743L692.747,217.745L688.231,217.745Z" style="fill-rule:nonzero;"/>
                    </g>
                    <g transform="matrix(1.70034,0,0,1.75807,-909.671,60.4006)">
                        <path d="M714.622,218.233C711.204,218.233 708.551,217.004 706.663,214.547L706.321,214.547C706.549,216.825 706.663,218.209 706.663,218.697L706.663,229.757L700.926,229.757L700.926,190.743L705.565,190.743C705.695,191.247 705.963,192.452 706.37,194.356L706.663,194.356C708.454,191.622 711.139,190.255 714.72,190.255C718.089,190.255 720.714,191.475 722.593,193.917C724.473,196.358 725.413,199.784 725.413,204.195C725.413,208.606 724.457,212.048 722.545,214.522C720.632,216.996 717.991,218.233 714.622,218.233ZM713.231,194.942C710.952,194.942 709.288,195.609 708.238,196.944C707.188,198.279 706.663,200.411 706.663,203.341L706.663,204.195C706.663,207.483 707.184,209.863 708.226,211.336C709.267,212.809 710.968,213.546 713.328,213.546C715.314,213.546 716.844,212.732 717.918,211.104C718.992,209.477 719.53,207.157 719.53,204.146C719.53,201.119 718.996,198.828 717.93,197.274C716.864,195.719 715.298,194.942 713.231,194.942Z" style="fill-rule:nonzero;"/>
                    </g>
                    <g transform="matrix(1.70034,0,0,1.75807,-909.671,60.4006)">
                        <path d="M751.976,189.742C751.976,190.767 752.248,191.736 752.794,192.647C753.339,193.559 754.1,194.527 755.076,195.552C756.916,194.511 758.205,193.538 758.946,192.635C759.687,191.732 760.057,190.718 760.057,189.595C760.057,188.537 759.703,187.691 758.995,187.056C758.287,186.422 757.347,186.104 756.175,186.104C754.889,186.104 753.868,186.434 753.111,187.093C752.354,187.752 751.976,188.635 751.976,189.742ZM755.613,213.301C758.592,213.301 761.139,212.431 763.255,210.689L753.905,201.485C752.179,202.592 750.991,203.629 750.34,204.598C749.689,205.566 749.363,206.669 749.363,207.906C749.363,209.501 749.929,210.799 751.06,211.8C752.191,212.801 753.709,213.301 755.613,213.301ZM743.309,208.297C743.309,206.164 743.83,204.305 744.871,202.718C745.913,201.131 747.793,199.556 750.511,197.994C748.965,196.187 747.911,194.661 747.349,193.416C746.788,192.171 746.507,190.881 746.507,189.547C746.507,187.073 747.39,185.12 749.156,183.687C750.922,182.255 753.294,181.539 756.273,181.539C759.154,181.539 761.416,182.235 763.06,183.626C764.704,185.018 765.526,186.894 765.526,189.254C765.526,191.109 764.976,192.794 763.878,194.307C762.779,195.821 760.944,197.335 758.372,198.848L766.82,207.003C768.138,205.261 769.237,202.706 770.115,199.337L776.024,199.337C774.884,203.959 773.061,207.727 770.555,210.64L777.904,217.745L770.506,217.745L766.868,214.205C765.208,215.539 763.438,216.544 761.558,217.22C759.678,217.895 757.599,218.233 755.321,218.233C751.577,218.233 748.639,217.346 746.507,215.572C744.375,213.798 743.309,211.373 743.309,208.297Z" style="fill-rule:nonzero;"/>
                    </g>
                    <g transform="matrix(1.70034,0,0,1.75807,-909.671,60.4006)">
                        <path d="M824.705,199.556C824.705,205.448 823.07,209.953 819.798,213.07C816.527,216.186 811.815,217.745 805.662,217.745L795.677,217.745L795.677,182.051L806.712,182.051C812.392,182.051 816.811,183.581 819.969,186.641C823.127,189.701 824.705,194.006 824.705,199.556ZM818.553,199.752C818.553,191.207 814.557,186.934 806.566,186.934L801.512,186.934L801.512,212.838L805.662,212.838C814.256,212.838 818.553,208.476 818.553,199.752Z" style="fill-rule:nonzero;"/>
                    </g>
                    <g transform="matrix(1.70034,0,0,1.75807,-909.671,60.4006)">
                        <path d="M837.498,217.745L831.761,217.745L831.761,190.743L837.498,190.743L837.498,217.745ZM831.419,183.59C831.419,182.564 831.7,181.775 832.261,181.221C832.823,180.668 833.625,180.391 834.666,180.391C835.675,180.391 836.461,180.668 837.022,181.221C837.584,181.775 837.864,182.564 837.864,183.59C837.864,184.566 837.584,185.335 837.022,185.897C836.461,186.458 835.675,186.739 834.666,186.739C833.625,186.739 832.823,186.458 832.261,185.897C831.7,185.335 831.419,184.566 831.419,183.59Z" style="fill-rule:nonzero;"/>
                    </g>
                    <g transform="matrix(1.70034,0,0,1.75807,-909.671,60.4006)">
                        <path d="M863.841,210.054C863.841,212.691 862.881,214.713 860.96,216.121C859.04,217.529 856.289,218.233 852.708,218.233C849.111,218.233 846.222,217.688 844.041,216.597L844.041,211.641C847.215,213.106 850.169,213.839 852.904,213.839C856.435,213.839 858.201,212.773 858.201,210.64C858.201,209.957 858.006,209.387 857.615,208.931C857.225,208.476 856.582,208.004 855.687,207.515C854.792,207.027 853.546,206.474 851.951,205.855C848.843,204.651 846.739,203.446 845.64,202.242C844.542,201.037 843.992,199.475 843.992,197.554C843.992,195.243 844.924,193.449 846.788,192.171C848.651,190.893 851.186,190.255 854.393,190.255C857.567,190.255 860.57,190.898 863.402,192.183L861.546,196.505C858.633,195.3 856.183,194.698 854.197,194.698C851.17,194.698 849.656,195.561 849.656,197.286C849.656,198.132 850.051,198.848 850.841,199.434C851.63,200.02 853.351,200.826 856.004,201.851C858.234,202.714 859.853,203.503 860.863,204.219C861.872,204.936 862.62,205.762 863.109,206.697C863.597,207.633 863.841,208.752 863.841,210.054Z" style="fill-rule:nonzero;"/>
                    </g>
                    <g transform="matrix(1.70034,0,0,1.75807,-909.671,60.4006)">
                        <path d="M886.937,217.745L885.789,213.985L885.594,213.985C884.292,215.629 882.982,216.748 881.663,217.342C880.345,217.936 878.652,218.233 876.585,218.233C873.932,218.233 871.861,217.517 870.372,216.085C868.883,214.652 868.138,212.626 868.138,210.006C868.138,207.222 869.171,205.123 871.238,203.707C873.306,202.291 876.455,201.518 880.687,201.387L885.35,201.241L885.35,199.801C885.35,198.075 884.947,196.785 884.141,195.931C883.336,195.076 882.086,194.649 880.394,194.649C879.01,194.649 877.684,194.853 876.414,195.259C875.145,195.666 873.924,196.147 872.752,196.7L870.897,192.598C872.362,191.833 873.965,191.252 875.706,190.853C877.448,190.454 879.092,190.255 880.638,190.255C884.072,190.255 886.664,191.003 888.414,192.501C890.163,193.998 891.038,196.35 891.038,199.556L891.038,217.745L886.937,217.745ZM878.392,213.839C880.475,213.839 882.148,213.257 883.409,212.093C884.67,210.929 885.301,209.298 885.301,207.198L885.301,204.854L881.834,205.001C879.132,205.098 877.167,205.55 875.938,206.356C874.709,207.161 874.095,208.394 874.095,210.054C874.095,211.259 874.453,212.191 875.169,212.85C875.885,213.509 876.96,213.839 878.392,213.839Z" style="fill-rule:nonzero;"/>
                    </g>
                    <g transform="matrix(1.70034,0,0,1.75807,-909.671,60.4006)">
                        <path d="M917.186,210.054C917.186,212.691 916.225,214.713 914.305,216.121C912.384,217.529 909.634,218.233 906.053,218.233C902.456,218.233 899.567,217.688 897.386,216.597L897.386,211.641C900.56,213.106 903.514,213.839 906.248,213.839C909.78,213.839 911.546,212.773 911.546,210.64C911.546,209.957 911.351,209.387 910.96,208.931C910.57,208.476 909.927,208.004 909.031,207.515C908.136,207.027 906.891,206.474 905.296,205.855C902.187,204.651 900.084,203.446 898.985,202.242C897.886,201.037 897.337,199.475 897.337,197.554C897.337,195.243 898.269,193.449 900.133,192.171C901.996,190.893 904.531,190.255 907.738,190.255C910.911,190.255 913.914,190.898 916.746,192.183L914.891,196.505C911.977,195.3 909.528,194.698 907.542,194.698C904.515,194.698 903.001,195.561 903.001,197.286C903.001,198.132 903.396,198.848 904.185,199.434C904.975,200.02 906.696,200.826 909.349,201.851C911.579,202.714 913.198,203.503 914.207,204.219C915.216,204.936 915.965,205.762 916.453,206.697C916.942,207.633 917.186,208.752 917.186,210.054Z" style="fill-rule:nonzero;"/>
                    </g>
                    <g transform="matrix(1.70034,0,0,1.75807,-909.671,60.4006)">
                        <path d="M933.446,213.594C934.845,213.594 936.245,213.375 937.645,212.935L937.645,217.257C937.01,217.533 936.192,217.765 935.191,217.952C934.19,218.14 933.153,218.233 932.078,218.233C926.642,218.233 923.924,215.369 923.924,209.639L923.924,195.089L920.238,195.089L920.238,192.55L924.193,190.45L926.146,184.737L929.686,184.737L929.686,190.743L937.376,190.743L937.376,195.089L929.686,195.089L929.686,209.542C929.686,210.925 930.032,211.946 930.723,212.606C931.415,213.265 932.322,213.594 933.446,213.594Z" style="fill-rule:nonzero;"/>
                    </g>
                    <g transform="matrix(1.70034,0,0,1.75807,-909.671,60.4006)">
                        <path d="M954.832,218.233C950.633,218.233 947.349,217.008 944.981,214.559C942.613,212.109 941.429,208.736 941.429,204.439C941.429,200.028 942.528,196.562 944.725,194.039C946.922,191.516 949.941,190.255 953.782,190.255C957.347,190.255 960.163,191.337 962.23,193.502C964.297,195.666 965.33,198.645 965.33,202.437L965.33,205.538L947.337,205.538C947.419,208.158 948.127,210.172 949.461,211.58C950.796,212.988 952.676,213.692 955.101,213.692C956.696,213.692 958.181,213.542 959.556,213.24C960.932,212.939 962.409,212.439 963.988,211.739L963.988,216.402C962.588,217.069 961.172,217.541 959.739,217.818C958.307,218.095 956.671,218.233 954.832,218.233ZM953.782,194.6C951.96,194.6 950.499,195.178 949.4,196.334C948.301,197.489 947.646,199.174 947.435,201.387L959.691,201.387C959.658,199.158 959.121,197.469 958.079,196.321C957.038,195.174 955.605,194.6 953.782,194.6Z" style="fill-rule:nonzero;"/>
                    </g>
                    <g transform="matrix(1.70034,0,0,1.75807,-909.671,60.4006)">
                        <path d="M985.545,190.255C986.701,190.255 987.653,190.336 988.402,190.499L987.84,195.845C987.026,195.65 986.18,195.552 985.301,195.552C983.006,195.552 981.147,196.301 979.722,197.799C978.298,199.296 977.586,201.241 977.586,203.634L977.586,217.745L971.849,217.745L971.849,190.743L976.341,190.743L977.098,195.504L977.391,195.504C978.286,193.892 979.454,192.615 980.894,191.671C982.335,190.727 983.885,190.255 985.545,190.255Z" style="fill-rule:nonzero;"/>
                    </g>
                    <g transform="matrix(1.70034,0,0,1.75807,-909.671,60.4006)">
                        <path d="M1012.84,198.653L1016.89,198.653C1019.61,198.653 1021.58,198.148 1022.8,197.139C1024.02,196.13 1024.63,194.633 1024.63,192.647C1024.63,190.629 1023.97,189.18 1022.65,188.301C1021.34,187.423 1019.35,186.983 1016.7,186.983L1012.84,186.983L1012.84,198.653ZM1012.84,203.487L1012.84,217.745L1007,217.745L1007,182.051L1017.09,182.051C1021.69,182.051 1025.1,182.914 1027.32,184.639C1029.53,186.365 1030.64,188.969 1030.64,192.452C1030.64,196.895 1028.33,200.061 1023.7,201.949L1033.79,217.745L1027.15,217.745L1018.6,203.487L1012.84,203.487Z" style="fill-rule:nonzero;"/>
                    </g>
                    <g transform="matrix(1.70034,0,0,1.75807,-909.671,60.4006)">
                        <path d="M1050.14,218.233C1045.95,218.233 1042.66,217.008 1040.29,214.559C1037.93,212.109 1036.74,208.736 1036.74,204.439C1036.74,200.028 1037.84,196.562 1040.04,194.039C1042.24,191.516 1045.25,190.255 1049.1,190.255C1052.66,190.255 1055.47,191.337 1057.54,193.502C1059.61,195.666 1060.64,198.645 1060.64,202.437L1060.64,205.538L1042.65,205.538C1042.73,208.158 1043.44,210.172 1044.77,211.58C1046.11,212.988 1047.99,213.692 1050.41,213.692C1052.01,213.692 1053.49,213.542 1054.87,213.24C1056.24,212.939 1057.72,212.439 1059.3,211.739L1059.3,216.402C1057.9,217.069 1056.48,217.541 1055.05,217.818C1053.62,218.095 1051.98,218.233 1050.14,218.233ZM1049.1,194.6C1047.27,194.6 1045.81,195.178 1044.71,196.334C1043.61,197.489 1042.96,199.174 1042.75,201.387L1055,201.387C1054.97,199.158 1054.43,197.469 1053.39,196.321C1052.35,195.174 1050.92,194.6 1049.1,194.6Z" style="fill-rule:nonzero;"/>
                    </g>
                    <g transform="matrix(1.70034,0,0,1.75807,-909.671,60.4006)">
                        <path d="M1078.05,218.233C1073.96,218.233 1070.86,217.041 1068.74,214.656C1066.61,212.272 1065.55,208.85 1065.55,204.39C1065.55,199.849 1066.66,196.358 1068.88,193.917C1071.1,191.475 1074.32,190.255 1078.51,190.255C1081.36,190.255 1083.93,190.784 1086.2,191.842L1084.47,196.456C1082.05,195.512 1080.04,195.04 1078.46,195.04C1073.79,195.04 1071.46,198.14 1071.46,204.342C1071.46,207.369 1072.04,209.643 1073.2,211.165C1074.37,212.687 1076.07,213.448 1078.32,213.448C1080.87,213.448 1083.29,212.813 1085.57,211.544L1085.57,216.549C1084.54,217.151 1083.45,217.582 1082.29,217.842C1081.12,218.103 1079.71,218.233 1078.05,218.233Z" style="fill-rule:nonzero;"/>
                    </g>
                    <g transform="matrix(1.70034,0,0,1.75807,-909.671,60.4006)">
                        <path d="M1115.87,204.195C1115.87,208.606 1114.74,212.048 1112.47,214.522C1110.21,216.996 1107.06,218.233 1103.03,218.233C1100.5,218.233 1098.27,217.663 1096.34,216.524C1094.4,215.385 1092.91,213.749 1091.87,211.617C1090.83,209.485 1090.31,207.011 1090.31,204.195C1090.31,199.817 1091.43,196.399 1093.67,193.941C1095.92,191.483 1099.09,190.255 1103.17,190.255C1107.08,190.255 1110.17,191.512 1112.45,194.027C1114.73,196.541 1115.87,199.931 1115.87,204.195ZM1096.21,204.195C1096.21,210.429 1098.52,213.546 1103.12,213.546C1107.68,213.546 1109.96,210.429 1109.96,204.195C1109.96,198.026 1107.66,194.942 1103.07,194.942C1100.67,194.942 1098.92,195.74 1097.84,197.335C1096.76,198.93 1096.21,201.217 1096.21,204.195Z" style="fill-rule:nonzero;"/>
                    </g>
                    <g transform="matrix(1.70034,0,0,1.75807,-909.671,60.4006)">
                        <path d="M1127.61,217.745L1117.36,190.743L1123.41,190.743L1128.9,206.441C1129.85,209.078 1130.42,211.21 1130.61,212.838L1130.81,212.838C1130.95,211.666 1131.53,209.534 1132.52,206.441L1138.01,190.743L1144.11,190.743L1133.81,217.745L1127.61,217.745Z" style="fill-rule:nonzero;"/>
                    </g>
                    <g transform="matrix(1.70034,0,0,1.75807,-909.671,60.4006)">
                        <path d="M1160.01,218.233C1155.81,218.233 1152.53,217.008 1150.16,214.559C1147.79,212.109 1146.61,208.736 1146.61,204.439C1146.61,200.028 1147.7,196.562 1149.9,194.039C1152.1,191.516 1155.12,190.255 1158.96,190.255C1162.52,190.255 1165.34,191.337 1167.4,193.502C1169.47,195.666 1170.51,198.645 1170.51,202.437L1170.51,205.538L1152.51,205.538C1152.59,208.158 1153.3,210.172 1154.64,211.58C1155.97,212.988 1157.85,213.692 1160.28,213.692C1161.87,213.692 1163.36,213.542 1164.73,213.24C1166.11,212.939 1167.59,212.439 1169.16,211.739L1169.16,216.402C1167.76,217.069 1166.35,217.541 1164.91,217.818C1163.48,218.095 1161.85,218.233 1160.01,218.233ZM1158.96,194.6C1157.13,194.6 1155.67,195.178 1154.58,196.334C1153.48,197.489 1152.82,199.174 1152.61,201.387L1164.87,201.387C1164.83,199.158 1164.3,197.469 1163.26,196.321C1162.21,195.174 1160.78,194.6 1158.96,194.6Z" style="fill-rule:nonzero;"/>
                    </g>
                    <g transform="matrix(1.70034,0,0,1.75807,-909.671,60.4006)">
                        <path d="M1190.72,190.255C1191.88,190.255 1192.83,190.336 1193.58,190.499L1193.02,195.845C1192.2,195.65 1191.36,195.552 1190.48,195.552C1188.18,195.552 1186.32,196.301 1184.9,197.799C1183.47,199.296 1182.76,201.241 1182.76,203.634L1182.76,217.745L1177.03,217.745L1177.03,190.743L1181.52,190.743L1182.27,195.504L1182.57,195.504C1183.46,193.892 1184.63,192.615 1186.07,191.671C1187.51,190.727 1189.06,190.255 1190.72,190.255Z" style="fill-rule:nonzero;"/>
                    </g>
                    <g transform="matrix(1.70034,0,0,1.75807,-909.671,60.4006)">
                        <path d="M1194.48,190.743L1200.73,190.743L1206.22,206.051C1207.05,208.231 1207.61,210.282 1207.88,212.203L1208.08,212.203C1208.23,211.308 1208.49,210.221 1208.88,208.944C1209.28,207.666 1211.34,201.599 1215.09,190.743L1221.29,190.743L1209.74,221.334C1207.64,226.949 1204.14,229.757 1199.24,229.757C1197.97,229.757 1196.74,229.618 1195.53,229.342L1195.53,224.801C1196.39,224.996 1197.38,225.093 1198.49,225.093C1201.25,225.093 1203.2,223.49 1204.32,220.284L1205.32,217.745L1194.48,190.743Z" style="fill-rule:nonzero;"/>
                    </g>
                </g>
            </g>
        </g>
    </g>
</svg>
